<?xml version="1.0" encoding="utf-8"?>
<!-- Generator: Adobe Illustrator 21.1.0, SVG Export Plug-In . SVG Version: 6.00 Build 0)  -->
<svg version="1.1" id="Capa_1" xmlns="http://www.w3.org/2000/svg" xmlns:xlink="http://www.w3.org/1999/xlink" x="0px" y="0px"
	 viewBox="0 0 512 512" style="enable-background:new 0 0 512 512;" xml:space="preserve">
<style type="text/css">
	.st0{fill:#54B88B;}
	.st1{fill:#B5E489;}
	.st2{opacity:0.2;enable-background:new    ;}
	.st3{opacity:0.1;enable-background:new    ;}
	.st4{fill:#414B58;}
	.st5{fill:none;stroke:#414B58;stroke-width:8;stroke-miterlimit:10;}
</style>
<path id="SVGCleanerId_0" class="st0" d="M222.6,499.5H59.8C26.8,499.5,0,472.7,0,439.6s26.8-59.8,59.8-59.8h162.8
	c41.6,0,75.4-33.8,75.4-75.4V181.5c0-33.1,26.8-59.8,59.8-59.8s59.8,26.8,59.8,59.8v122.8C417.8,411.9,330.2,499.5,222.6,499.5z"/>
<g>
	<path id="SVGCleanerId_0_1_" class="st0" d="M222.6,499.5H59.8C26.8,499.5,0,472.7,0,439.6s26.8-59.8,59.8-59.8h162.8
		c41.6,0,75.4-33.8,75.4-75.4V181.5c0-33.1,26.8-59.8,59.8-59.8s59.8,26.8,59.8,59.8v122.8C417.8,411.9,330.2,499.5,222.6,499.5z"/>
</g>
<g>
	<rect x="77.1" y="379.8" class="st1" width="90" height="119.7"/>
	<path class="st1" d="M291.5,335c-11.7,26.2-38,44.6-68.5,44.7c25,21.6,56.9,64.6,63.2,109.1c40.8-14.1,75.4-41.3,98.9-76.6
		C370.3,374.3,324.1,345.8,291.5,335z"/>
</g>
<path class="st2" d="M357.9,121.7c-33.1,0-59.8,26.8-59.8,59.8v122.8c0,9.5-1.8,18.5-5,26.9c20.1,7.9,41.9,12.3,64.8,12.3
	c20.2,0,39.6-3.4,57.6-9.6c1.5-9.6,2.2-19.5,2.2-29.5V181.5C417.8,148.5,391,121.7,357.9,121.7z"/>
<circle class="st0" cx="357.9" cy="166.6" r="154.1"/>
<path class="st3" d="M105.1,379.8H59.8C26.8,379.8,0,406.6,0,439.6s26.8,59.8,59.8,59.8h121.3C112.4,479.9,90.6,415.2,105.1,379.8z"
	/>
<path class="st3" d="M334.2,14.3c-73.8,11.4-130.4,75.2-130.4,152.3c0,85.1,69,154.1,154.1,154.1c16.7,0,32.7-2.7,47.7-7.5
	C208.9,234.9,265.8,68.6,334.2,14.3z"/>
<path class="st4" d="M358,143.9L358,143.9c11.2-0.1,20.3,8.8,20.5,20l0.2,14.7c0,3-2.4,5.5-5.5,5.6l-29.4,0.4c-3,0-5.5-2.4-5.6-5.5
	l-0.2-14.7C337.9,153.2,346.8,144.1,358,143.9z"/>
<g>
	<line class="st5" x1="454.1" y1="123.7" x2="403.6" y2="173.6"/>
	<line class="st5" x1="454.1" y1="174.3" x2="404.3" y2="123.7"/>
</g>
<g>
	<line class="st5" x1="312.2" y1="124.5" x2="261.7" y2="174.4"/>
	<line class="st5" x1="312.2" y1="175.1" x2="262.4" y2="124.5"/>
</g>
</svg>
